<svg xmlns="http://www.w3.org/2000/svg" viewBox="0 0 46 46"><defs><style>.prefix__cls-2{fill:#fff}</style></defs><g id="prefix__Group_2765" data-name="Group 2765" transform="translate(-1215 -136)"><circle id="prefix__Ellipse_198" cx="23" cy="23" r="23" data-name="Ellipse 198" transform="translate(1215 136)" fill="#049fd9"/><g id="prefix__Group_2599" data-name="Group 2599" transform="translate(1223.207 145.448)"><g id="prefix__Group_2598" data-name="Group 2598"><path id="prefix__Path_5305" d="M229.66 249.114l-13.566-8.176a1.28 1.28 0 0 0-1.322 0l-13.566 8.176a1.281 1.281 0 0 0 1.322 2.195l3.135-1.889 9.77-5.888 9.77 5.888 3.135 1.889a1.281 1.281 0 0 0 1.323-2.195z" class="prefix__cls-2" data-name="Path 5305" transform="translate(-200.586 -240.754)"/><path id="prefix__Path_5306" d="M274.9 301l-10.635 6.409v13.844a1.521 1.521 0 0 0 1.521 1.521h5.38v-10.479h7.466v10.481h5.38a1.521 1.521 0 0 0 1.521-1.521V307.41z" class="prefix__cls-2" data-name="Path 5306" transform="translate(-260.056 -297.016)"/></g></g></g></svg>